<svg width="720" height="620" viewBox="0 0 720 620" xmlns="http://www.w3.org/2000/svg" font-family="Arial, Helvetica, sans-serif">
<rect x="0" y="0" width="720" height="620" fill="#0D1117"/>
<defs><marker id="a" viewBox="0 0 10 10" refX="8" refY="5" markerWidth="6" markerHeight="6" orient="auto-start-reverse"><path d="M1 1L8 5L1 9" fill="none" stroke="#8B949E" stroke-width="1.4" stroke-linecap="round" stroke-linejoin="round"/></marker></defs>
<rect x="250.0" y="40" width="200" height="40" rx="6" fill="#161B22" stroke="#326CE5" stroke-width="1.2"/><text x="350.0" y="64.0" text-anchor="middle" font-size="12" fill="#E6EDF3">Deployment</text>
<path d="M350 80 L350 110" fill="none" stroke="#30363D" stroke-width="1.3" marker-end="url(#a)"/><text x="358.0" y="91.0" font-size="10" fill="#8B949E">ownerReferences</text>
<rect x="250.0" y="110" width="200" height="40" rx="6" fill="#161B22" stroke="#326CE5" stroke-width="1.2"/><text x="350.0" y="134.0" text-anchor="middle" font-size="12" fill="#E6EDF3">ReplicaSet</text>
<path d="M350 150 L350 180" fill="none" stroke="#30363D" stroke-width="1.3" marker-end="url(#a)"/><text x="358.0" y="161.0" font-size="10" fill="#8B949E">ownerReferences</text>
<rect x="250.0" y="180" width="200" height="40" rx="6" fill="#161B22" stroke="#326CE5" stroke-width="1.2"/><text x="350.0" y="204.0" text-anchor="middle" font-size="12" fill="#E6EDF3">Pods</text>
<path d="M350 220 L120 260" fill="none" stroke="#30363D" stroke-width="1.3" marker-end="url(#a)"/>
<path d="M350 220 L350 260" fill="none" stroke="#30363D" stroke-width="1.3" marker-end="url(#a)"/>
<path d="M350 220 L580 260" fill="none" stroke="#30363D" stroke-width="1.3" marker-end="url(#a)"/>
<rect x="20.0" y="260" width="200" height="40" rx="6" fill="#161B22" stroke="#D29922" stroke-width="1.2"/><text x="120.0" y="284.0" text-anchor="middle" font-size="12" fill="#E6EDF3">VolumeMounts</text>
<rect x="250.0" y="260" width="200" height="40" rx="6" fill="#161B22" stroke="#D29922" stroke-width="1.2"/><text x="350.0" y="284.0" text-anchor="middle" font-size="12" fill="#E6EDF3">Label Selectors</text>
<rect x="480.0" y="260" width="200" height="40" rx="6" fill="#161B22" stroke="#D29922" stroke-width="1.2"/><text x="580.0" y="284.0" text-anchor="middle" font-size="12" fill="#E6EDF3">Environment</text>
<path d="M120 300 L120 330" fill="none" stroke="#30363D" stroke-width="1.3" marker-end="url(#a)"/>
<path d="M350 300 L350 330" fill="none" stroke="#30363D" stroke-width="1.3" marker-end="url(#a)"/>
<path d="M580 300 L580 330" fill="none" stroke="#30363D" stroke-width="1.3" marker-end="url(#a)"/>
<rect x="20.0" y="330" width="200" height="40" rx="6" fill="#161B22" stroke="#2EA043" stroke-width="1.2"/><text x="120.0" y="354.0" text-anchor="middle" font-size="12" fill="#E6EDF3">ConfigMaps</text>
<rect x="250.0" y="330" width="200" height="40" rx="6" fill="#161B22" stroke="#2EA043" stroke-width="1.2"/><text x="350.0" y="354.0" text-anchor="middle" font-size="12" fill="#E6EDF3">Services</text>
<rect x="480.0" y="330" width="200" height="40" rx="6" fill="#161B22" stroke="#2EA043" stroke-width="1.2"/><text x="580.0" y="354.0" text-anchor="middle" font-size="12" fill="#E6EDF3">Secrets</text>
<path d="M120 370 L120 400" fill="none" stroke="#30363D" stroke-width="1.3" marker-end="url(#a)"/>
<path d="M350 370 L350 400" fill="none" stroke="#30363D" stroke-width="1.3" marker-end="url(#a)"/>
<rect x="20.0" y="400" width="200" height="40" rx="6" fill="#161B22" stroke="#2EA043" stroke-width="1.2"/><text x="120.0" y="424.0" text-anchor="middle" font-size="12" fill="#E6EDF3">PersistentVolumeClaims</text>
<rect x="250.0" y="400" width="200" height="40" rx="6" fill="#161B22" stroke="#2EA043" stroke-width="1.2"/><text x="350.0" y="424.0" text-anchor="middle" font-size="12" fill="#E6EDF3">Ingress</text>
<path d="M120 440 L120 470" fill="none" stroke="#30363D" stroke-width="1.3" marker-end="url(#a)"/>
<path d="M350 440 L350 470" fill="none" stroke="#30363D" stroke-width="1.3" marker-end="url(#a)"/>
<rect x="20.0" y="470" width="200" height="40" rx="6" fill="#161B22" stroke="#2EA043" stroke-width="1.2"/><text x="120.0" y="494.0" text-anchor="middle" font-size="12" fill="#E6EDF3">PersistentVolumes</text>
<rect x="250.0" y="470" width="200" height="40" rx="6" fill="#161B22" stroke="#F85149" stroke-width="1.2"/><text x="350.0" y="494.0" text-anchor="middle" font-size="12" fill="#E6EDF3">External Traffic Exposure</text>
<path d="M350 510 L350 540" fill="none" stroke="#30363D" stroke-width="1.3" marker-end="url(#a)"/>
<rect x="250.0" y="540" width="200" height="40" rx="6" fill="#161B22" stroke="#F85149" stroke-width="1.2"/><text x="350.0" y="564.0" text-anchor="middle" font-size="12" fill="#E6EDF3">Blast Radius Score</text>
</svg>
