<svg width="560" height="1200" viewBox="0 0 560 1200" xmlns="http://www.w3.org/2000/svg" font-family="Arial, Helvetica, sans-serif">
<rect x="0" y="0" width="560" height="1200" fill="#0D1117"/>
<defs><marker id="a" viewBox="0 0 10 10" refX="8" refY="5" markerWidth="6" markerHeight="6" orient="auto-start-reverse"><path d="M1 1L8 5L1 9" fill="none" stroke="#8B949E" stroke-width="1.4" stroke-linecap="round" stroke-linejoin="round"/></marker></defs>
<rect x="110.0" y="40" width="340" height="40" rx="6" fill="#161B22" stroke="#30363D" stroke-width="1.2"/>
<text x="280" y="64.0" text-anchor="middle" font-size="13" fill="#8B949E">User executes command</text>
<line x1="280" y1="80" x2="280" y2="100" stroke="#30363D" stroke-width="1.4" marker-end="url(#a)"/>
<rect x="110.0" y="100" width="340" height="40" rx="6" fill="#161B22" stroke="#326CE5" stroke-width="1.2"/>
<text x="280" y="124.0" text-anchor="middle" font-size="13" fill="#E6EDF3">cobra.Command</text>
<line x1="280" y1="140" x2="280" y2="160" stroke="#30363D" stroke-width="1.4" marker-end="url(#a)"/>
<rect x="110.0" y="160" width="340" height="40" rx="6" fill="#161B22" stroke="#326CE5" stroke-width="1.2"/>
<text x="280" y="184.0" text-anchor="middle" font-size="13" fill="#E6EDF3">Argument Validation</text>
<line x1="280" y1="200" x2="280" y2="220" stroke="#30363D" stroke-width="1.4" marker-end="url(#a)"/>
<rect x="110.0" y="220" width="340" height="40" rx="6" fill="#161B22" stroke="#326CE5" stroke-width="1.2"/>
<text x="280" y="244.0" text-anchor="middle" font-size="13" fill="#E6EDF3">Namespace Discovery</text>
<line x1="280" y1="260" x2="280" y2="280" stroke="#30363D" stroke-width="1.4" marker-end="url(#a)"/>
<rect x="110.0" y="280" width="340" height="40" rx="6" fill="#161B22" stroke="#326CE5" stroke-width="1.2"/>
<text x="280" y="304.0" text-anchor="middle" font-size="13" fill="#E6EDF3">Kubernetes Client Initialization</text>
<line x1="280" y1="320" x2="280" y2="340" stroke="#30363D" stroke-width="1.4" marker-end="url(#a)"/>
<rect x="110.0" y="340" width="340" height="40" rx="6" fill="#161B22" stroke="#326CE5" stroke-width="1.2"/>
<text x="280" y="364.0" text-anchor="middle" font-size="13" fill="#E6EDF3">API Discovery</text>
<line x1="280" y1="380" x2="280" y2="400" stroke="#30363D" stroke-width="1.4" marker-end="url(#a)"/>
<rect x="110.0" y="400" width="340" height="40" rx="6" fill="#161B22" stroke="#2EA043" stroke-width="1.2"/>
<text x="280" y="424.0" text-anchor="middle" font-size="13" fill="#E6EDF3">Target Deployment Lookup</text>
<line x1="280" y1="440" x2="280" y2="460" stroke="#30363D" stroke-width="1.4" marker-end="url(#a)"/>
<rect x="110.0" y="460" width="340" height="40" rx="6" fill="#161B22" stroke="#2EA043" stroke-width="1.2"/>
<text x="280" y="484.0" text-anchor="middle" font-size="13" fill="#E6EDF3">ReplicaSet Discovery</text>
<line x1="280" y1="500" x2="280" y2="520" stroke="#30363D" stroke-width="1.4" marker-end="url(#a)"/>
<rect x="110.0" y="520" width="340" height="40" rx="6" fill="#161B22" stroke="#2EA043" stroke-width="1.2"/>
<text x="280" y="544.0" text-anchor="middle" font-size="13" fill="#E6EDF3">Pod Enumeration</text>
<line x1="280" y1="560" x2="280" y2="580" stroke="#30363D" stroke-width="1.4" marker-end="url(#a)"/>
<rect x="110.0" y="580" width="340" height="40" rx="6" fill="#161B22" stroke="#2EA043" stroke-width="1.2"/>
<text x="280" y="604.0" text-anchor="middle" font-size="13" fill="#E6EDF3">Dependency Collection</text>
<line x1="280" y1="620" x2="280" y2="640" stroke="#30363D" stroke-width="1.4" marker-end="url(#a)"/>
<rect x="110.0" y="640" width="340" height="40" rx="6" fill="#161B22" stroke="#2EA043" stroke-width="1.2"/>
<text x="280" y="664.0" text-anchor="middle" font-size="13" fill="#E6EDF3">Service Resolution</text>
<line x1="280" y1="680" x2="280" y2="700" stroke="#30363D" stroke-width="1.4" marker-end="url(#a)"/>
<rect x="110.0" y="700" width="340" height="40" rx="6" fill="#161B22" stroke="#2EA043" stroke-width="1.2"/>
<text x="280" y="724.0" text-anchor="middle" font-size="13" fill="#E6EDF3">ConfigMap Resolution</text>
<line x1="280" y1="740" x2="280" y2="760" stroke="#30363D" stroke-width="1.4" marker-end="url(#a)"/>
<rect x="110.0" y="760" width="340" height="40" rx="6" fill="#161B22" stroke="#2EA043" stroke-width="1.2"/>
<text x="280" y="784.0" text-anchor="middle" font-size="13" fill="#E6EDF3">Secret Resolution</text>
<line x1="280" y1="800" x2="280" y2="820" stroke="#30363D" stroke-width="1.4" marker-end="url(#a)"/>
<rect x="110.0" y="820" width="340" height="40" rx="6" fill="#161B22" stroke="#2EA043" stroke-width="1.2"/>
<text x="280" y="844.0" text-anchor="middle" font-size="13" fill="#E6EDF3">Persistent Volume Resolution</text>
<line x1="280" y1="860" x2="280" y2="880" stroke="#30363D" stroke-width="1.4" marker-end="url(#a)"/>
<rect x="110.0" y="880" width="340" height="40" rx="6" fill="#161B22" stroke="#2EA043" stroke-width="1.2"/>
<text x="280" y="904.0" text-anchor="middle" font-size="13" fill="#E6EDF3">Ingress Resolution</text>
<line x1="280" y1="920" x2="280" y2="940" stroke="#30363D" stroke-width="1.4" marker-end="url(#a)"/>
<rect x="110.0" y="940" width="340" height="40" rx="6" fill="#161B22" stroke="#D29922" stroke-width="1.2"/>
<text x="280" y="964.0" text-anchor="middle" font-size="13" fill="#E6EDF3">Dependency Graph Construction</text>
<line x1="280" y1="980" x2="280" y2="1000" stroke="#30363D" stroke-width="1.4" marker-end="url(#a)"/>
<rect x="110.0" y="1000" width="340" height="40" rx="6" fill="#161B22" stroke="#F85149" stroke-width="1.2"/>
<text x="280" y="1024.0" text-anchor="middle" font-size="13" fill="#E6EDF3">Blast Radius Evaluation</text>
<line x1="280" y1="1040" x2="280" y2="1060" stroke="#30363D" stroke-width="1.4" marker-end="url(#a)"/>
<rect x="110.0" y="1060" width="340" height="40" rx="6" fill="#161B22" stroke="#30363D" stroke-width="1.2"/>
<text x="280" y="1084.0" text-anchor="middle" font-size="13" fill="#8B949E">Terminal Report Generation</text>
<line x1="280" y1="1100" x2="280" y2="1120" stroke="#30363D" stroke-width="1.4" marker-end="url(#a)"/>
<rect x="110.0" y="1120" width="340" height="40" rx="6" fill="#161B22" stroke="#30363D" stroke-width="1.2"/>
<text x="280" y="1144.0" text-anchor="middle" font-size="13" fill="#8B949E">CLI Output</text>
</svg>
