<svg width="640" height="828" viewBox="0 0 640 828" xmlns="http://www.w3.org/2000/svg" font-family="Arial, Helvetica, sans-serif">
<rect x="0" y="0" width="640" height="828" fill="#0D1117"/>
<defs><marker id="a" viewBox="0 0 10 10" refX="8" refY="5" markerWidth="6" markerHeight="6" orient="auto-start-reverse"><path d="M1 1L8 5L1 9" fill="none" stroke="#8B949E" stroke-width="1.4" stroke-linecap="round" stroke-linejoin="round"/></marker></defs>
<rect x="170.0" y="40" width="300" height="190" rx="6" fill="#161B22" stroke="#326CE5" stroke-width="1.2"/>
<text x="320" y="62" text-anchor="middle" font-size="13" fill="#E6EDF3">Discovered Resources</text>
<text x="320" y="86" text-anchor="middle" font-size="11" fill="#8B949E">ReplicaSets</text>
<text x="320" y="106" text-anchor="middle" font-size="11" fill="#8B949E">Pods</text>
<text x="320" y="126" text-anchor="middle" font-size="11" fill="#8B949E">Services</text>
<text x="320" y="146" text-anchor="middle" font-size="11" fill="#8B949E">ConfigMaps</text>
<text x="320" y="166" text-anchor="middle" font-size="11" fill="#8B949E">Secrets</text>
<text x="320" y="186" text-anchor="middle" font-size="11" fill="#8B949E">PVCs</text>
<text x="320" y="206" text-anchor="middle" font-size="11" fill="#8B949E">Ingresses</text>
<path d="M320 230 L320 260" fill="none" stroke="#30363D" stroke-width="1.3" marker-end="url(#a)"/>
<rect x="170.0" y="260" width="300" height="46" rx="6" fill="#161B22" stroke="#326CE5" stroke-width="1.2"/>
<text x="320" y="288" text-anchor="middle" font-size="13" fill="#E6EDF3">Dependency Graph Builder</text>
<path d="M320 306 L320 336" fill="none" stroke="#30363D" stroke-width="1.3" marker-end="url(#a)"/>
<rect x="170.0" y="336" width="300" height="46" rx="6" fill="#161B22" stroke="#326CE5" stroke-width="1.2"/>
<text x="320" y="364" text-anchor="middle" font-size="13" fill="#E6EDF3">Relationship Classification</text>
<path d="M320 382 L320 412" fill="none" stroke="#30363D" stroke-width="1.3" marker-end="url(#a)"/>
<rect x="170.0" y="412" width="300" height="150" rx="6" fill="#161B22" stroke="#D29922" stroke-width="1.2"/>
<text x="320" y="434" text-anchor="middle" font-size="13" fill="#E6EDF3">Classification Criteria</text>
<text x="320" y="458" text-anchor="middle" font-size="11" fill="#8B949E">External Traffic?</text>
<text x="320" y="480" text-anchor="middle" font-size="11" fill="#8B949E">Persistent Storage?</text>
<text x="320" y="502" text-anchor="middle" font-size="11" fill="#8B949E">Sensitive Secrets?</text>
<text x="320" y="524" text-anchor="middle" font-size="11" fill="#8B949E">Configuration Objects?</text>
<text x="320" y="546" text-anchor="middle" font-size="11" fill="#8B949E">Running Pods?</text>
<path d="M320 562 L320 592" fill="none" stroke="#30363D" stroke-width="1.3" marker-end="url(#a)"/>
<rect x="170.0" y="592" width="300" height="46" rx="6" fill="#161B22" stroke="#F85149" stroke-width="1.2"/>
<text x="320" y="620" text-anchor="middle" font-size="13" fill="#E6EDF3">Blast Radius Evaluator</text>
<path d="M320 638 L160.0 668" fill="none" stroke="#30363D" stroke-width="1.3" marker-end="url(#a)"/>
<path d="M320 638 L320.0 668" fill="none" stroke="#30363D" stroke-width="1.3" marker-end="url(#a)"/>
<path d="M320 638 L480.0 668" fill="none" stroke="#30363D" stroke-width="1.3" marker-end="url(#a)"/>
<rect x="90.0" y="668" width="140" height="44" rx="6" fill="#161B22" stroke="#2EA043" stroke-width="1.2"/>
<text x="160.0" y="695" text-anchor="middle" font-size="13" fill="#E6EDF3">LOW</text>
<rect x="250.0" y="668" width="140" height="44" rx="6" fill="#161B22" stroke="#D29922" stroke-width="1.2"/>
<text x="320.0" y="695" text-anchor="middle" font-size="13" fill="#E6EDF3">MEDIUM</text>
<rect x="410.0" y="668" width="140" height="44" rx="6" fill="#161B22" stroke="#F85149" stroke-width="1.2"/>
<text x="480.0" y="695" text-anchor="middle" font-size="13" fill="#E6EDF3">HIGH</text>
<path d="M160.0 712 L320 742" fill="none" stroke="#30363D" stroke-width="1.3" marker-end="url(#a)"/>
<path d="M320.0 712 L320 742" fill="none" stroke="#30363D" stroke-width="1.3" marker-end="url(#a)"/>
<path d="M480.0 712 L320 742" fill="none" stroke="#30363D" stroke-width="1.3" marker-end="url(#a)"/>
<rect x="170.0" y="742" width="300" height="46" rx="6" fill="#161B22" stroke="#326CE5" stroke-width="1.2"/>
<text x="320" y="770" text-anchor="middle" font-size="13" fill="#E6EDF3">Terminal Report</text>
</svg>
