<svg width="680" height="592" viewBox="0 0 680 592" xmlns="http://www.w3.org/2000/svg" font-family="Arial, Helvetica, sans-serif">
<rect x="0" y="0" width="680" height="592" fill="#0D1117"/>
<defs><marker id="a" viewBox="0 0 10 10" refX="8" refY="5" markerWidth="6" markerHeight="6" orient="auto-start-reverse"><path d="M1 1L8 5L1 9" fill="none" stroke="#8B949E" stroke-width="1.4" stroke-linecap="round" stroke-linejoin="round"/></marker></defs>
<path d="M340 84 L340 124" fill="none" stroke="#30363D" stroke-width="1.4" marker-end="url(#a)"/>
<path d="M340 180 L340 220" fill="none" stroke="#30363D" stroke-width="1.4" marker-end="url(#a)"/>
<path d="M340 276 L137 316" fill="none" stroke="#30363D" stroke-width="1.4" marker-end="url(#a)"/>
<path d="M340 276 L340 316" fill="none" stroke="#30363D" stroke-width="1.4" marker-end="url(#a)"/>
<path d="M340 276 L543 316" fill="none" stroke="#30363D" stroke-width="1.4" marker-end="url(#a)"/>
<path d="M137 372 L340 412" fill="none" stroke="#30363D" stroke-width="1.4" marker-end="url(#a)"/>
<path d="M340 372 L340 412" fill="none" stroke="#30363D" stroke-width="1.4" marker-end="url(#a)"/>
<path d="M543 372 L340 412" fill="none" stroke="#30363D" stroke-width="1.4" marker-end="url(#a)"/>
<path d="M340 456 L340 496" fill="none" stroke="#30363D" stroke-width="1.4" marker-end="url(#a)"/>
<rect x="240" y="40" width="200" height="44" rx="8" fill="#161B22" stroke="#30363D" stroke-width="1.2"/>
<text x="340" y="66" text-anchor="middle" font-size="13" font-weight="600" fill="#E6EDF3">Platform engineer</text>
<rect x="210" y="124" width="260" height="56" rx="8" fill="#161B22" stroke="#326CE5" stroke-width="1.2"/>
<text x="340" y="146" text-anchor="middle" font-size="13" font-weight="600" fill="#E6EDF3">Hawk CLI (Cobra layer)</text>
<text x="340" y="166" text-anchor="middle" font-size="11" fill="#8B949E">Parses commands and flags</text>
<rect x="210" y="220" width="260" height="56" rx="8" fill="#161B22" stroke="#326CE5" stroke-width="1.2"/>
<text x="340" y="242" text-anchor="middle" font-size="13" font-weight="600" fill="#E6EDF3">Analysis orchestrator</text>
<text x="340" y="262" text-anchor="middle" font-size="11" fill="#8B949E">Coordinates the full pipeline</text>
<rect x="44" y="316" width="186" height="56" rx="8" fill="#161B22" stroke="#2EA043" stroke-width="1.2"/>
<text x="137" y="338" text-anchor="middle" font-size="12" font-weight="600" fill="#E6EDF3">Resource discovery</text>
<text x="137" y="358" text-anchor="middle" font-size="11" fill="#8B949E">Collects resources</text>
<rect x="247" y="316" width="186" height="56" rx="8" fill="#161B22" stroke="#D29922" stroke-width="1.2"/>
<text x="340" y="338" text-anchor="middle" font-size="12" font-weight="600" fill="#E6EDF3">Dependency engine</text>
<text x="340" y="358" text-anchor="middle" font-size="11" fill="#8B949E">Builds resource graph</text>
<rect x="450" y="316" width="186" height="56" rx="8" fill="#161B22" stroke="#326CE5" stroke-width="1.2"/>
<text x="543" y="338" text-anchor="middle" font-size="12" font-weight="600" fill="#E6EDF3">Report generator</text>
<text x="543" y="358" text-anchor="middle" font-size="11" fill="#8B949E">Renders analysis output</text>
<rect x="210" y="412" width="260" height="44" rx="8" fill="#161B22" stroke="#30363D" stroke-width="1.2"/>
<text x="340" y="438" text-anchor="middle" font-size="13" font-weight="600" fill="#E6EDF3">Kubernetes API (client-go)</text>
<rect x="200" y="496" width="280" height="56" rx="8" fill="#161B22" stroke="#30363D" stroke-width="1.2"/>
<text x="340" y="518" text-anchor="middle" font-size="13" font-weight="600" fill="#E6EDF3">Cluster resources</text>
<text x="340" y="538" text-anchor="middle" font-size="11" fill="#8B949E">Deployments, pods, services</text>
</svg>
