<svg width="700" height="530" viewBox="0 0 700 530" xmlns="http://www.w3.org/2000/svg" font-family="Arial, Helvetica, sans-serif">
<rect x="0" y="0" width="700" height="530" fill="#0D1117"/>
<defs><marker id="a" viewBox="0 0 10 10" refX="8" refY="5" markerWidth="6" markerHeight="6" orient="auto-start-reverse"><path d="M1 1L8 5L1 9" fill="none" stroke="#8B949E" stroke-width="1.4" stroke-linecap="round" stroke-linejoin="round"/></marker></defs>
<rect x="250" y="40" width="200" height="50" rx="6" fill="#161B22" stroke="#326CE5" stroke-width="1.2"/>
<text x="350" y="70" text-anchor="middle" font-size="14" fill="#E6EDF3">Hawk</text>
<path d="M350 90 L350 120" fill="none" stroke="#30363D" stroke-width="1.3" marker-end="url(#a)"/>
<rect x="220" y="120" width="260" height="50" rx="6" fill="#161B22" stroke="#326CE5" stroke-width="1.2"/>
<text x="350" y="150" text-anchor="middle" font-size="14" fill="#E6EDF3">client-go Library</text>
<path d="M350 170 L350 200" fill="none" stroke="#30363D" stroke-width="1.3" marker-end="url(#a)"/>
<rect x="190" y="200" width="320" height="50" rx="6" fill="#161B22" stroke="#326CE5" stroke-width="1.2"/>
<text x="350" y="230" text-anchor="middle" font-size="13" fill="#E6EDF3">RESTClient / Discovery Client</text>
<path d="M350 250 L350 300" fill="none" stroke="#30363D" stroke-width="1.3" marker-end="url(#a)"/>
<rect x="50.0" y="300" width="600" height="190" rx="6" fill="#161B22" stroke="#30363D" stroke-width="1.2"/>
<text x="350" y="326" text-anchor="middle" font-size="14" fill="#E6EDF3">Kubernetes API Server</text>
<rect x="75.0" y="346" width="170" height="32" rx="4" fill="#0D1117" stroke="#D29922" stroke-width="1"/>
<text x="160.0" y="366.0" text-anchor="middle" font-size="11" fill="#E6EDF3">apps/v1</text>
<rect x="265.0" y="346" width="170" height="32" rx="4" fill="#0D1117" stroke="#D29922" stroke-width="1"/>
<text x="350.0" y="366.0" text-anchor="middle" font-size="11" fill="#E6EDF3">core/v1</text>
<rect x="455.0" y="346" width="170" height="32" rx="4" fill="#0D1117" stroke="#D29922" stroke-width="1"/>
<text x="540.0" y="366.0" text-anchor="middle" font-size="11" fill="#E6EDF3">networking.k8s.io/v1</text>
<line x1="70.0" y1="392" x2="630.0" y2="392" stroke="#30363D" stroke-width="1"/>
<rect x="80.5" y="406" width="125" height="30" rx="4" fill="#0D1117" stroke="#2EA043" stroke-width="1"/>
<text x="143.0" y="425.0" text-anchor="middle" font-size="11" fill="#E6EDF3">Deployments</text>
<rect x="218.5" y="406" width="125" height="30" rx="4" fill="#0D1117" stroke="#2EA043" stroke-width="1"/>
<text x="281.0" y="425.0" text-anchor="middle" font-size="11" fill="#E6EDF3">ReplicaSets</text>
<rect x="356.5" y="406" width="125" height="30" rx="4" fill="#0D1117" stroke="#2EA043" stroke-width="1"/>
<text x="419.0" y="425.0" text-anchor="middle" font-size="11" fill="#E6EDF3">Pods</text>
<rect x="494.5" y="406" width="125" height="30" rx="4" fill="#0D1117" stroke="#2EA043" stroke-width="1"/>
<text x="557.0" y="425.0" text-anchor="middle" font-size="11" fill="#E6EDF3">Services</text>
<rect x="80.5" y="446" width="125" height="30" rx="4" fill="#0D1117" stroke="#2EA043" stroke-width="1"/>
<text x="143.0" y="465.0" text-anchor="middle" font-size="11" fill="#E6EDF3">Secrets</text>
<rect x="218.5" y="446" width="125" height="30" rx="4" fill="#0D1117" stroke="#2EA043" stroke-width="1"/>
<text x="281.0" y="465.0" text-anchor="middle" font-size="11" fill="#E6EDF3">ConfigMaps</text>
<rect x="356.5" y="446" width="125" height="30" rx="4" fill="#0D1117" stroke="#2EA043" stroke-width="1"/>
<text x="419.0" y="465.0" text-anchor="middle" font-size="11" fill="#E6EDF3">PVCs</text>
<rect x="494.5" y="446" width="125" height="30" rx="4" fill="#0D1117" stroke="#2EA043" stroke-width="1"/>
<text x="557.0" y="465.0" text-anchor="middle" font-size="11" fill="#E6EDF3">Ingresses</text>
</svg>
